<?xml version="1.0" encoding="UTF-8" standalone="no"?>
<!-- Generator: Adobe Illustrator 18.0.0, SVG Export Plug-In . SVG Version: 6.00 Build 0)  -->

<svg
   xmlns:dc="http://purl.org/dc/elements/1.1/"
   xmlns:cc="http://creativecommons.org/ns#"
   xmlns:rdf="http://www.w3.org/1999/02/22-rdf-syntax-ns#"
   xmlns:svg="http://www.w3.org/2000/svg"
   xmlns="http://www.w3.org/2000/svg"
   xmlns:xlink="http://www.w3.org/1999/xlink"
   xmlns:sodipodi="http://sodipodi.sourceforge.net/DTD/sodipodi-0.dtd"
   xmlns:inkscape="http://www.inkscape.org/namespaces/inkscape"
   version="1.1"
   id="GraphQL_Logo"
   x="0px"
   y="0px"
   viewBox="0 0 400 400"
   enable-background="new 0 0 400 400"
   xml:space="preserve"
   sodipodi:docname="pyql-logo.svg"
   inkscape:version="0.92.2 2405546, 2018-03-11"
   inkscape:export-filename="/home/samu/Projects/pyql/logo/pyql-logo.png"
   inkscape:export-xdpi="122.88"
   inkscape:export-ydpi="122.88"><metadata
   id="metadata4704"><rdf:RDF><cc:Work
       rdf:about=""><dc:format>image/svg+xml</dc:format><dc:type
         rdf:resource="http://purl.org/dc/dcmitype/StillImage" /><dc:title></dc:title></cc:Work></rdf:RDF></metadata><defs
   id="defs4702"><linearGradient
   id="linearGradient11301">
      <stop
   id="stop11303"
   offset="0"
   style="stop-color:#ffe052;stop-opacity:1" />
      <stop
   id="stop11305"
   offset="1"
   style="stop-color:#ffc331;stop-opacity:1" />
    </linearGradient><linearGradient
   gradientUnits="userSpaceOnUse"
   y2="168.1012"
   x2="147.77737"
   y1="111.92053"
   x1="89.136749"
   id="linearGradient11307"
   xlink:href="#linearGradient11301" /><linearGradient
   id="linearGradient9515">
      <stop
   id="stop9517"
   offset="0"
   style="stop-color:#387eb8;stop-opacity:1" />
      <stop
   id="stop9519"
   offset="1"
   style="stop-color:#366994;stop-opacity:1" />
    </linearGradient><linearGradient
   gradientUnits="userSpaceOnUse"
   y2="131.85291"
   x2="110.14919"
   y1="77.070274"
   x1="55.549179"
   id="linearGradient9521"
   xlink:href="#linearGradient9515" />
	
	
	
	
	
	
	
	
	
	
	
	
	
	
	
</defs><sodipodi:namedview
   pagecolor="#ffffff"
   bordercolor="#666666"
   borderopacity="1"
   objecttolerance="10"
   gridtolerance="10"
   guidetolerance="10"
   inkscape:pageopacity="0"
   inkscape:pageshadow="2"
   inkscape:window-width="2558"
   inkscape:window-height="1418"
   id="namedview4700"
   showgrid="false"
   inkscape:zoom="1"
   inkscape:cx="116.54038"
   inkscape:cy="156.81868"
   inkscape:window-x="1920"
   inkscape:window-y="20"
   inkscape:window-maximized="1"
   inkscape:current-layer="GraphQL_Logo" />
<g
   id="g4938"
   style="fill:#3770a0;fill-opacity:1"><g
     id="g4647"
     style="fill:#3770a0;fill-opacity:1">
		<g
   id="g4645"
   style="fill:#3770a0;fill-opacity:1">
			
				<rect
   x="37.900002"
   y="312.20001"
   transform="matrix(-0.866,-0.5,0.5,-0.866,83.0693,663.3409)"
   width="185"
   height="16.6"
   id="rect4643"
   style="fill:#3770a0;fill-opacity:1" />
		</g>
	</g><g
     id="g4653"
     style="fill:#3770a0;fill-opacity:1">
		<g
   id="g4651"
   style="fill:#3770a0;fill-opacity:1">
			
				<rect
   x="177.10001"
   y="71.099998"
   transform="matrix(-0.866,-0.5,0.5,-0.866,463.3409,283.0693)"
   width="185"
   height="16.6"
   id="rect4649"
   style="fill:#3770a0;fill-opacity:1" />
		</g>
	</g><g
     id="g4659"
     style="fill:#3770a0;fill-opacity:1">
		<g
   id="g4657"
   style="fill:#3770a0;fill-opacity:1">
			
				<rect
   x="122.1"
   y="-13"
   transform="matrix(-0.5,-0.866,0.866,-0.5,126.7903,232.1221)"
   width="16.6"
   height="185"
   id="rect4655"
   style="fill:#3770a0;fill-opacity:1" />
		</g>
	</g><g
     id="g4671"
     style="fill:#3770a0;fill-opacity:1">
		<g
   id="g4669"
   style="fill:#3770a0;fill-opacity:1">
			<rect
   x="52.5"
   y="107.5"
   width="16.6"
   height="185"
   id="rect4667"
   style="fill:#3770a0;fill-opacity:1" />
		</g>
	</g><g
     id="g4677"
     style="fill:#3770a0;fill-opacity:1">
		<g
   id="g4675"
   style="fill:#3770a0;fill-opacity:1">
			<rect
   x="330.89999"
   y="107.5"
   width="16.6"
   height="185"
   id="rect4673"
   style="fill:#3770a0;fill-opacity:1" />
		</g>
	</g><g
     id="g4683"
     style="fill:#3770a0;fill-opacity:1">
		<g
   id="g4681"
   style="fill:#3770a0;fill-opacity:1">
			
				<rect
   x="262.39999"
   y="240.10001"
   transform="matrix(-0.5,-0.866,0.866,-0.5,126.7953,714.2875)"
   width="14.5"
   height="160.89999"
   id="rect4679"
   style="fill:#3770a0;fill-opacity:1" />
		</g>
	</g><path
     d="m 90.9,137 c -9.6,16.7 -31,22.4 -47.7,12.8 -16.7,-9.6 -22.4,-31 -12.8,-47.7 9.6,-16.7 31,-22.4 47.7,-12.8 16.7,9.7 22.4,31 12.8,47.7"
     id="path4687"
     inkscape:connector-curvature="0"
     style="fill:#3770a0;fill-opacity:1" /><path
     d="m 309.1,137 c -9.6,-16.7 -3.9,-38 12.8,-47.7 16.7,-9.6 38,-3.9 47.7,12.8 9.6,16.7 3.9,38 -12.8,47.7 -16.7,9.6 -38.1,3.9 -47.7,-12.8"
     id="path4691"
     inkscape:connector-curvature="0"
     style="fill:#3770a0;fill-opacity:1" /><path
     d="m 200,395.8 c -19.3,0 -34.9,-15.6 -34.9,-34.9 0,-19.3 15.6,-34.9 34.9,-34.9 19.3,0 34.9,15.6 34.9,34.9 0,19.2 -15.6,34.9 -34.9,34.9"
     id="path4693"
     inkscape:connector-curvature="0"
     style="fill:#3770a0;fill-opacity:1" /></g><g
   id="g4952"
   style="fill:#ffcf3f;fill-opacity:1"><g
     id="g4635"
     style="fill:#ffcf3f;fill-opacity:1">
		<g
   id="g4633"
   style="fill:#ffcf3f;fill-opacity:1">
			
				<rect
   x="122"
   y="-0.40000001"
   transform="matrix(-0.866,-0.5,0.5,-0.866,163.3196,363.3136)"
   width="16.6"
   height="320.29999"
   id="rect4631"
   style="fill:#ffcf3f;fill-opacity:1" />
		</g>
	</g><g
     id="g4641"
     style="fill:#ffcf3f;fill-opacity:1">
		<g
   id="g4639"
   style="fill:#ffcf3f;fill-opacity:1">
			<rect
   x="39.799999"
   y="272.20001"
   width="320.29999"
   height="16.6"
   id="rect4637"
   style="fill:#ffcf3f;fill-opacity:1" />
		</g>
	</g><g
     id="g4665"
     style="fill:#ffcf3f;fill-opacity:1">
		<g
   id="g4663"
   style="fill:#ffcf3f;fill-opacity:1">
			
				<rect
   x="109.6"
   y="151.60001"
   transform="matrix(-0.5,-0.866,0.866,-0.5,266.0828,473.3766)"
   width="320.29999"
   height="16.6"
   id="rect4661"
   style="fill:#ffcf3f;fill-opacity:1" />
		</g>
	</g><path
     d="m 369.5,297.9 c -9.6,16.7 -31,22.4 -47.7,12.8 -16.7,-9.6 -22.4,-31 -12.8,-47.7 9.6,-16.7 31,-22.4 47.7,-12.8 16.8,9.7 22.5,31 12.8,47.7"
     id="path4685"
     inkscape:connector-curvature="0"
     style="fill:#ffcf3f;fill-opacity:1" /><path
     d="m 30.5,297.9 c -9.6,-16.7 -3.9,-38 12.8,-47.7 16.7,-9.6 38,-3.9 47.7,12.8 9.6,16.7 3.9,38 -12.8,47.7 -16.8,9.6 -38.1,3.9 -47.7,-12.8"
     id="path4689"
     inkscape:connector-curvature="0"
     style="fill:#ffcf3f;fill-opacity:1" /><path
     d="m 200,74 c -19.3,0 -34.9,-15.6 -34.9,-34.9 0,-19.3 15.6,-34.9 34.9,-34.9 19.3,0 34.9,15.6 34.9,34.9 0,19.3 -15.6,34.9 -34.9,34.9"
     id="path4695"
     inkscape:connector-curvature="0"
     style="fill:#ffcf3f;fill-opacity:1" /></g>
<g
   aria-label="PyQL"
   style="font-style:normal;font-variant:normal;font-weight:normal;font-stretch:normal;font-size:59.14971924px;line-height:1.25;font-family:Alegreya;-inkscape-font-specification:'Alegreya, Normal';font-variant-ligatures:normal;font-variant-caps:normal;font-variant-numeric:normal;font-feature-settings:normal;text-align:start;letter-spacing:0px;word-spacing:0px;writing-mode:lr-tb;text-anchor:start;fill:#000000;fill-opacity:1;stroke:none;stroke-width:1.47874284"
   id="text4956"><path
     d="m 136.55825,241.53832 c 0.1183,-0.17745 5.61922,-0.4732 8.81331,-0.4732 2.01109,0 5.44177,0.1183 5.44177,0.17745 l 0.53235,-2.72088 -0.1183,-0.2366 c 0,0 -2.01109,0.17745 -3.19408,0.17745 -2.30684,0 -2.60259,-0.65065 -2.60259,-6.03327 l 0.1183,-5.79668 h 4.96857 c 7.03882,0 13.54529,-6.21072 13.54529,-12.95379 0,-6.80221 -4.49538,-10.52865 -12.65804,-10.52865 0,0 -5.85582,0.2366 -7.45287,0.2366 -2.24768,0 -6.56561,-0.17745 -6.56561,-0.17745 l -0.41405,2.60259 0.1183,0.2366 c 0,0 1.30129,-0.1183 2.01109,-0.1183 1.71534,0 2.18854,0.65065 2.18854,3.19409 l -0.0592,24.84288 c 0,3.37153 -0.8281,4.25878 -4.25878,4.85028 z m 15.37893,-17.50831 -6.26987,-0.88725 c 0.1183,-5.08688 0.3549,-11.00185 0.70979,-16.26617 0.0591,-0.8281 0.17745,-0.8281 1.59705,-0.8281 7.68946,0 11.12014,2.72089 11.12014,8.75416 0,5.32347 -2.42514,8.45841 -7.15711,9.22736 z"
     style="stroke-width:1.47874284"
     id="path4958" /><path
     d="m 168.1174,255.32021 c 5.20517,0.1183 7.57116,-3.43069 13.42698,-17.50832 l 7.51202,-17.98151 c 0.82809,-2.30684 1.53789,-3.07579 3.31238,-3.37154 l 0.41405,-2.18854 c 0,0 -2.95749,0.0592 -5.02773,0.0592 -2.89833,0 -6.03327,-0.2366 -6.03327,-0.2366 l -0.3549,1.95194 0.1183,0.2366 h 2.72089 c 1.53789,0 2.24769,0.4732 2.24769,1.53789 0,1.183 -4.08133,11.1793 -6.80222,17.68577 h -0.2366 c 0,0 -5.20517,-15.85212 -5.20517,-17.92236 0,-1.0647 0.65064,-1.4196 3.37153,-1.5379 l 0.3549,-1.83364 -0.1183,-0.29575 c 0,0 -3.60813,0.41405 -7.09797,0.41405 l -4.90942,-0.0592 -0.3549,1.95194 0.1183,0.2366 c 1.95194,0.0591 3.25323,0.76895 4.02218,2.83919 2.18854,5.79667 5.50092,15.97042 7.33456,21.76709 -2.72088,6.44732 -6.56561,10.4695 -11.12014,10.4695 l -0.29575,0.41405 c 0,0.76895 2.01109,3.37154 2.60259,3.37154 z"
     style="stroke-width:1.47874284"
     id="path4960" /><path
     d="m 234.26527,253.84146 c 1.18299,0 5.61922,-4.02218 5.61922,-4.02218 l -0.3549,-1.06469 -0.2366,-0.17745 c 0,0 -1.95194,0.5915 -4.73197,0.5915 -4.73198,0 -9.75971,-2.12939 -18.15897,-7.80777 v -0.29575 c 8.45841,-2.36598 14.49168,-10.3512 14.49168,-20.17005 0,-10.76525 -6.86136,-18.21811 -16.73937,-18.21811 -10.94269,0 -19.46025,9.10905 -19.46025,20.8207 0,10.8244 6.68391,18.27726 16.38447,18.27726 14.01848,10.2329 17.56746,12.06654 23.18669,12.06654 z m -21.35305,-15.08317 c -7.74861,0 -13.13124,-7.03882 -13.13124,-17.15342 0,-9.10906 5.02773,-15.37893 12.36229,-15.37893 7.98522,0 13.48614,7.03882 13.48614,17.15342 0,9.10906 -5.20518,15.37893 -12.71719,15.37893 z"
     style="stroke-width:1.47874284"
     id="path4962" /><path
     d="m 237.59336,241.65662 c 0,0 3.48984,-0.5915 7.92607,-0.5915 5.61922,0 15.91127,0.53235 15.91127,0.53235 l 0.29575,-0.3549 c 0.65065,-5.85582 1.71534,-11.23844 1.71534,-11.23844 l -0.17745,-0.29575 -2.60259,0.29575 c -1.30129,7.27541 -2.54343,8.39926 -9.4048,8.39926 -4.43623,0 -5.02773,-0.53235 -5.02773,-4.55453 0,-5.38263 0.17745,-15.43808 0.7098,-22.83179 0.29575,-3.96303 -0.0591,-4.96858 3.90388,-5.50093 l 0.2366,-2.66173 c 0,0 -3.78558,0.53234 -6.32902,0.53234 -2.24769,0 -6.62477,-0.17745 -6.62477,-0.17745 l -0.41405,2.60259 0.1183,0.2366 c 0,0 1.3013,-0.1183 2.01109,-0.1183 1.77449,0 2.18854,0.65065 2.18854,3.19409 l -0.0592,24.84288 c 0,3.37153 -0.94639,4.49538 -4.02218,4.96857 z"
     style="stroke-width:1.47874284"
     id="path4964" /></g></svg>